<?xml version="1.0" encoding="utf-8"?>
<!-- Generator: Adobe Illustrator 25.2.1, SVG Export Plug-In . SVG Version: 6.00 Build 0)  -->
<svg version="1.1" id="Capa_1" xmlns="http://www.w3.org/2000/svg" xmlns:xlink="http://www.w3.org/1999/xlink" x="0px" y="0px"
	 viewBox="0 0 59.58 55.93" style="enable-background:new 0 0 59.58 55.93;" xml:space="preserve">
<style type="text/css">
	.st0{fill:#45AB49;}
	.st1{fill:#0F1216;}
</style>
<g>
	<g>
		<path class="st0" d="M29.72,43.93c-6.31,0-12.61,0-18.92,0c-1.7,0-2.77-1.05-2.78-2.75c-0.01-8.79-0.01-17.59,0-26.38
			c0-1.74,1.16-2.83,3.03-2.83c4.94-0.01,9.89-0.01,14.83-0.01c7.52,0,15.04,0,22.56,0c2.13,0,3.09,0.95,3.09,3.07
			c0,8.56-0.03,17.11,0.03,25.67c0.01,1.74-1.07,3.3-3.28,3.27c-6.19-0.08-12.37-0.03-18.56-0.03
			C29.72,43.94,29.72,43.93,29.72,43.93z"/>
		<path class="st1" d="M11.21,15.36c1.05,0.94,1.94,1.74,2.83,2.54c4.67,4.19,9.33,8.37,14,12.56c0.13,0.12,0.28,0.22,0.42,0.33
			c1.28,0.98,1.63,0.96,2.82-0.1c5.28-4.74,10.56-9.48,15.85-14.22c0.21-0.19,0.37-0.55,0.81-0.31c0.36,0.19,0.36,0.46,0.4,0.8
			c0.17,1.48-0.27,2.57-1.49,3.6c-2.89,2.44-5.63,5.06-8.44,7.63c3.05,3.12,6.08,6.23,9.12,9.34c0.12,0.13,0.26,0.25,0.37,0.38
			c0.58,0.66,0.57,1.37-0.02,1.96c-0.53,0.53-1.41,0.55-1.98-0.01c-1.03-1.02-2.04-2.06-3.06-3.09c-2.05-2.06-4.11-4.09-6.14-6.17
			c-0.41-0.42-0.64-0.42-1.04-0.02c-0.77,0.77-1.62,1.47-2.4,2.24c-1.95,1.91-4.31,2.34-6.5,0.35c-0.96-0.87-1.98-1.7-2.89-2.62
			c-0.43-0.43-0.63-0.35-1,0.03c-2.92,2.94-5.85,5.87-8.79,8.8c-0.25,0.25-0.5,0.52-0.81,0.67c-0.66,0.33-1.32,0.32-1.86-0.26
			c-0.53-0.58-0.42-1.19,0-1.77c0.17-0.24,0.39-0.44,0.6-0.65c2.86-2.87,5.72-5.75,8.61-8.6c0.42-0.42,0.58-0.61,0.01-1.11
			c-2.86-2.52-5.65-5.12-8.5-7.66c-0.65-0.58-1.01-1.18-0.93-2.07C11.27,17.15,11.21,16.37,11.21,15.36z"/>
	</g>
</g>
</svg>
