<?xml version="1.0" encoding="utf-8"?>
<!-- Generator: Adobe Illustrator 25.2.1, SVG Export Plug-In . SVG Version: 6.00 Build 0)  -->
<svg version="1.1" id="Capa_1" xmlns="http://www.w3.org/2000/svg" xmlns:xlink="http://www.w3.org/1999/xlink" x="0px" y="0px"
	 viewBox="0 0 59.58 55.93" style="enable-background:new 0 0 59.58 55.93;" xml:space="preserve">
<style type="text/css">
	.st0{fill:#47BA4D;}
	.st1{fill:#59EF5F;}
	.st2{fill:#59F65E;}
	.st3{fill:#5AFB62;}
	.st4{fill:#0B1014;}
	.st5{fill:#59F25E;}
	.st6{fill:#5BFA61;}
	.st7{fill:#5EFB66;}
	.st8{fill:#5BFC61;}
	.st9{fill:#47BB4D;}
</style>
<path class="st0" d="M46.72,1.73c5.19,0.96,8.96,4.93,9.84,10.39c0.08,0.49,0.12,0.99,0.18,1.49c-0.19,1.58,0.01,3.16,0.02,4.74
	c0.03,6.32,0.03,12.63,0,18.95c-0.01,1.58-0.21,3.16-0.02,4.75c-0.52,6.48-4.35,11.02-10.41,12.29c-0.86,0.18-1.76,0.2-2.64,0.3
	c-0.26-0.12-0.53-0.08-0.8-0.08c-8.94,0-17.89,0-26.83,0c-0.27,0-0.55-0.04-0.8,0.08C9.52,54.57,4.15,49.98,3.08,44.2
	c-0.25-1.33-0.51-2.66-0.41-4.03c0.11-0.26,0.07-0.54,0.07-0.81c0-7.77,0-15.55,0-23.32c0-0.27,0.04-0.55-0.07-0.81
	C2.56,8.07,6.83,2.76,12.72,1.57c0.98-0.2,1.97-0.41,2.99-0.31c0.42,0.14,0.85,0.07,1.27,0.07c7.57,0,15.13,0,22.7,0.01
	c1.97,0,3.94,0.09,5.88,0.44C45.94,1.85,46.34,1.85,46.72,1.73z"/>
<path class="st1" d="M56.74,42.05c-0.28-0.46-0.2-0.98-0.2-1.48c0-8.54,0-17.07,0-25.61c0-0.46-0.07-0.94,0.2-1.36
	C57,23.09,57.01,32.57,56.74,42.05z"/>
<path class="st2" d="M46.72,1.73c-1.58,0.3-3.15-0.16-4.72-0.15c-0.62,0-1.24-0.12-1.85-0.12c-7.53-0.01-15.06,0-22.59-0.01
	c-0.61,0-1.25,0.12-1.83-0.19C26.05,1.43,36.4,0.69,46.72,1.73z"/>
<path class="st3" d="M15.24,54.63c0.42-0.28,0.9-0.2,1.36-0.2c8.57,0,17.15,0,25.72,0c0.46,0,0.94-0.07,1.36,0.2
	C34.2,54.8,24.72,54.84,15.24,54.63z"/>
<path class="st4" d="M52.77,39.92c-0.31,1.24-0.26,2.53-0.69,3.76c-1.28,3.69-3.74,5.98-7.67,6.57c-0.19,0.03-0.36,0.11-0.55,0.17
	c-0.37,0.33-0.82,0.16-1.22,0.16c-8.65,0.01-17.3,0-25.95,0.02c-0.74,0-1.46-0.07-2.14-0.38c-2.11-0.62-4.05-1.48-5.46-3.28
	c-1.39-1.77-2.06-3.79-2.25-5.99c-0.06-0.65-0.14-1.3-0.21-1.96c-0.23-0.22-0.15-0.51-0.15-0.77c0-7.39,0-14.78,0-22.17
	c0-0.26-0.08-0.55,0.14-0.78c0.27-1.64,0.46-3.29,1.31-4.78c1.63-2.9,4.1-4.45,7.37-4.83c0.31-0.04,0.6-0.13,0.91-0.19
	c0.26-0.24,0.59-0.14,0.89-0.14c8.41-0.01,16.81-0.01,25.22,0c0.3,0,0.62-0.1,0.89,0.14c0.65,0.1,1.3,0.16,1.94,0.29
	c4.12,0.85,7.04,4.16,7.43,8.39c0.04,0.38,0.13,0.76,0.2,1.13c0.25,0.26,0.15,0.59,0.15,0.89c0.01,7.62,0.01,15.25,0,22.87
	C52.92,39.33,53.02,39.66,52.77,39.92z"/>
<path class="st5" d="M14.56,50.21c2.22,0.41,4.47,0.26,6.71,0.26c7.54,0,15.07-0.03,22.61-0.05c-0.16,0.54-0.61,0.28-0.91,0.28
	c-3.88,0.02-7.77,0.01-11.65,0.01c-4.82,0-9.63,0-14.45,0.01c-0.82,0-1.62-0.09-2.4-0.32c-0.01,0,0-0.07,0.01-0.09
	C14.49,50.26,14.53,50.24,14.56,50.21z"/>
<path class="st6" d="M43.2,5.45c-9,0-18,0-27,0c-0.15-0.04-0.3-0.07-0.77-0.18c9.7,0,19.07,0,28.65,0
	C43.65,5.35,43.42,5.4,43.2,5.45z"/>
<path class="st7" d="M52.77,39.92c0-8.22,0-16.44,0-24.65c0.04-0.15,0.07-0.3,0.19-0.77c0,8.91,0,17.5,0,26.3
	C52.87,40.37,52.82,40.15,52.77,39.92z"/>
<path class="st8" d="M6.62,15.26c0,7.91,0.01,15.81,0.01,23.72c-0.04,0.3-0.09,0.6-0.13,0.91c-0.02,0-0.05,0-0.07,0
	c0-8.44,0-16.87,0-25.57C6.53,14.79,6.57,15.03,6.62,15.26z"/>
<path class="st0" d="M29.8,13.48c8.35,0.07,14.71,6.61,14.63,15.04c-0.07,7.75-6.76,14.09-14.78,14.02
	c-7.98-0.07-14.53-6.8-14.43-14.81C15.32,19.86,21.92,13.41,29.8,13.48z"/>
<path class="st9" d="M45.21,16.18C43.37,16.19,42,14.85,42,13.07c0.01-1.77,1.41-3.21,3.15-3.22c1.73-0.01,3.21,1.44,3.23,3.16
	C48.4,14.79,47.02,16.17,45.21,16.18z"/>
<path class="st4" d="M29.98,37.93c-5.41,0.1-9.95-4.2-10.06-9.51c-0.11-5.57,4.12-10.26,9.35-10.37c5.74-0.13,10.23,4.05,10.48,9.48
	C40.02,33.22,35.27,37.99,29.98,37.93z"/>
</svg>
