<?xml version="1.0" encoding="utf-8"?>
<!-- Generator: Adobe Illustrator 25.2.1, SVG Export Plug-In . SVG Version: 6.00 Build 0)  -->
<svg version="1.1" id="Capa_1" xmlns="http://www.w3.org/2000/svg" xmlns:xlink="http://www.w3.org/1999/xlink" x="0px" y="0px"
	 viewBox="0 0 59.58 55.93" style="enable-background:new 0 0 59.58 55.93;" xml:space="preserve">
<style type="text/css">
	.st0{fill:#45AB49;}
	.st1{fill:#101216;}
	.st2{fill:#45AB48;}
</style>
<g>
	<path class="st0" d="M6.82,50.79c1.72-3.45,2.58-6.89,3.45-10.34c0-0.86,0-0.86,0-1.72c-4.31-8.61-2.58-19.81,4.31-26.7
		c4.31-4.31,8.61-6.89,14.64-6.89c5.17,0,10.34,1.72,14.64,5.17s7.75,7.75,8.61,13.78c0.86,6.89,0,12.06-4.31,17.23
		c-3.45,4.31-8.61,6.89-13.78,8.61c-5.17,0.86-10.34,0-14.64-2.58h-0.86C14.57,49.07,11.12,49.93,6.82,50.79z"/>
	<path class="st1" d="M49.03,28.4c0,9.48-6.89,16.37-15.51,18.09c-4.31,0.86-8.61,0-12.06-1.72c-0.86,0-1.72-0.86-1.72,0
		c-2.58-0.86-4.31,0-6.03,0c-0.86,0-0.86,0-0.86-0.86c0.86-1.72,0.86-3.45,1.72-5.17c0-0.86,0-0.86,0-1.72
		c-5.17-6.89-3.45-16.37,2.58-22.4c4.31-4.31,8.61-6.03,14.64-5.17c8.61,0.86,13.78,6.03,16.37,13.78
		C49.03,24.95,49.03,26.67,49.03,28.4z"/>
	<path class="st2" d="M18.02,22.37c0-1.72,0.86-3.45,1.72-4.31c0.86-0.86,1.72-0.86,3.45-0.86c0.86,0,0.86,0,0.86,0.86
		c0.86,1.72,0.86,3.45,1.72,4.31c0,0.86,0,0.86,0,0.86c0,0.86-0.86,1.72-0.86,2.58s-0.86,0.86,0,1.72c1.72,2.58,4.31,4.31,6.89,6.03
		c0.86,0,1.72,0,1.72,0c0.86-0.86,0.86-1.72,1.72-1.72c0,0,0.86-0.86,0.86,0c1.72,0.86,2.58,1.72,4.31,1.72
		c0.86,0,0.86,0.86,0.86,0.86c0,2.58-1.72,4.31-4.31,4.31c-3.45,0-6.03-0.86-8.61-2.58c-4.31-2.58-7.75-6.89-9.48-12.06
		C18.88,23.23,18.02,22.37,18.02,22.37z"/>
</g>
</svg>
